  0
SECTION
  2
HEADER
  9
$ACADVER
  1
AC1024
  9
$ACADMAINTVER
 70
     6
  9
$DWGCODEPAGE
  3
UNDEFINED
  9
$INSBASE
 10
0.0
 20
0.0
 30
0.0
  9
$EXTMIN
 10
1.000000000000000E+20
 20
1.000000000000000E+20
 30
1.000000000000000E+20
  9
$EXTMAX
 10
-1.000000000000000E+20
 20
-1.000000000000000E+20
 30
-1.000000000000000E+20
  9
$LIMMIN
 10
0.0
 20
0.0
  9
$LIMMAX
 10
12.0
 20
9.0
  9
$ORTHOMODE
 70
     0
  9
$REGENMODE
 70
     1
  9
$FILLMODE
 70
     1
  9
$QTEXTMODE
 70
     0
  9
$MIRRTEXT
 70
     1
  9
$LTSCALE
 40
1.0
  9
$ATTMODE
 70
     1
  9
$TEXTSIZE
 40
0.2
  9
$TRACEWID
 40
0.05
  9
$TEXTSTYLE
  7
Standard
  9
$CLAYER
  8
0
  9
$CELTYPE
  6
ByLayer
  9
$CECOLOR
 62
   256
  9
$CELTSCALE
 40
1.0
  9
$DISPSILH
 70
     0
  9
$DIMSCALE
 40
1.0
  9
$DIMASZ
 40
0.18
  9
$DIMEXO
 40
0.0625
  9
$DIMDLI
 40
0.38
  9
$DIMRND
 40
0.0
  9
$DIMDLE
 40
0.0
  9
$DIMEXE
 40
0.18
  9
$DIMTP
 40
0.0
  9
$DIMTM
 40
0.0
  9
$DIMTXT
 40
0.18
  9
$DIMCEN
 40
0.09
  9
$DIMTSZ
 40
0.0
  9
$DIMTOL
 70
     0
  9
$DIMLIM
 70
     0
  9
$DIMTIH
 70
     1
  9
$DIMTOH
 70
     1
  9
$DIMSE1
 70
     0
  9
$DIMSE2
 70
     0
  9
$DIMTAD
 70
     0
  9
$DIMZIN
 70
     0
  9
$DIMBLK
  1

  9
$DIMASO
 70
     1
  9
$DIMSHO
 70
     1
  9
$DIMPOST
  1

  9
$DIMAPOST
  1

  9
$DIMALT
 70
     0
  9
$DIMALTD
 70
     2
  9
$DIMALTF
 40
25.4
  9
$DIMLFAC
 40
1.0
  9
$DIMTOFL
 70
     0
  9
$DIMTVP
 40
0.0
  9
$DIMTIX
 70
     0
  9
$DIMSOXD
 70
     0
  9
$DIMSAH
 70
     0
  9
$DIMBLK1
  1

  9
$DIMBLK2
  1

  9
$DIMSTYLE
  2
Standard
  9
$DIMCLRD
 70
     0
  9
$DIMCLRE
 70
     0
  9
$DIMCLRT
 70
     0
  9
$DIMTFAC
 40
1.0
  9
$DIMGAP
 40
0.09
  9
$DIMJUST
 70
     0
  9
$DIMSD1
 70
     0
  9
$DIMSD2
 70
     0
  9
$DIMTOLJ
 70
     1
  9
$DIMTZIN
 70
     0
  9
$DIMALTZ
 70
     0
  9
$DIMALTTZ
 70
     0
  9
$DIMUPT
 70
     0
  9
$DIMDEC
 70
     4
  9
$DIMTDEC
 70
     4
  9
$DIMALTU
 70
     2
  9
$DIMALTTD
 70
     2
  9
$DIMTXSTY
  7
Standard
  9
$DIMAUNIT
 70
     0
  9
$DIMADEC
 70
     0
  9
$DIMALTRND
 40
0.0
  9
$DIMAZIN
 70
     0
  9
$DIMDSEP
 70
    46
  9
$DIMATFIT
 70
     3
  9
$DIMFRAC
 70
     0
  9
$DIMLDRBLK
  1

  9
$DIMLUNIT
 70
     2
  9
$DIMLWD
 70
    -2
  9
$DIMLWE
 70
    -2
  9
$DIMTMOVE
 70
     0
  9
$DIMFXL
 40
1.0
  9
$DIMFXLON
 70
     0
  9
$DIMJOGANG
 40
0.7853981633974483
  9
$DIMTFILL
 70
     0
  9
$DIMTFILLCLR
 70
     0
  9
$DIMARCSYM
 70
     0
  9
$DIMLTYPE
  6

  9
$DIMLTEX1
  6

  9
$DIMLTEX2
  6

  9
$DIMTXTDIRECTION
 70
     0
  9
$LUNITS
 70
     2
  9
$LUPREC
 70
     4
  9
$SKETCHINC
 40
0.1
  9
$FILLETRAD
 40
0.5
  9
$AUNITS
 70
     0
  9
$AUPREC
 70
     0
  9
$MENU
  1
.
  9
$ELEVATION
 40
0.0
  9
$PELEVATION
 40
0.0
  9
$THICKNESS
 40
0.0
  9
$LIMCHECK
 70
     0
  9
$CHAMFERA
 40
0.5
  9
$CHAMFERB
 40
0.5
  9
$CHAMFERC
 40
1.0
  9
$CHAMFERD
 40
0.0
  9
$SKPOLY
 70
     0
  9
$TDCREATE
 40
2458951.508958322
  9
$TDUCREATE
 40
2458951.842291667
  9
$TDUPDATE
 40
2458951.508958322
  9
$TDUUPDATE
 40
2458951.842291667
  9
$TDINDWG
 40
0.0000000116
  9
$TDUSRTIMER
 40
0.0000000116
  9
$USRTIMER
 70
     1
  9
$ANGBASE
 50
0.0
  9
$ANGDIR
 70
     0
  9
$PDMODE
 70
     0
  9
$PDSIZE
 40
0.0
  9
$PLINEWID
 40
0.0
  9
$SPLFRAME
 70
     0
  9
$SPLINETYPE
 70
     6
  9
$SPLINESEGS
 70
     8
  9
$HANDSEED
  5
44
  9
$SURFTAB1
 70
     6
  9
$SURFTAB2
 70
     6
  9
$SURFTYPE
 70
     6
  9
$SURFU
 70
     6
  9
$SURFV
 70
     6
  9
$UCSBASE
  2

  9
$UCSNAME
  2

  9
$UCSORG
 10
0.0
 20
0.0
 30
0.0
  9
$UCSXDIR
 10
1.0
 20
0.0
 30
0.0
  9
$UCSYDIR
 10
0.0
 20
1.0
 30
0.0
  9
$UCSORTHOREF
  2

  9
$UCSORTHOVIEW
 70
     0
  9
$UCSORGTOP
 10
0.0
 20
0.0
 30
0.0
  9
$UCSORGBOTTOM
 10
0.0
 20
0.0
 30
0.0
  9
$UCSORGLEFT
 10
0.0
 20
0.0
 30
0.0
  9
$UCSORGRIGHT
 10
0.0
 20
0.0
 30
0.0
  9
$UCSORGFRONT
 10
0.0
 20
0.0
 30
0.0
  9
$UCSORGBACK
 10
0.0
 20
0.0
 30
0.0
  9
$PUCSBASE
  2

  9
$PUCSNAME
  2

  9
$PUCSORG
 10
0.0
 20
0.0
 30
0.0
  9
$PUCSXDIR
 10
1.0
 20
0.0
 30
0.0
  9
$PUCSYDIR
 10
0.0
 20
1.0
 30
0.0
  9
$PUCSORTHOREF
  2

  9
$PUCSORTHOVIEW
 70
     0
  9
$PUCSORGTOP
 10
0.0
 20
0.0
 30
0.0
  9
$PUCSORGBOTTOM
 10
0.0
 20
0.0
 30
0.0
  9
$PUCSORGLEFT
 10
0.0
 20
0.0
 30
0.0
  9
$PUCSORGRIGHT
 10
0.0
 20
0.0
 30
0.0
  9
$PUCSORGFRONT
 10
0.0
 20
0.0
 30
0.0
  9
$PUCSORGBACK
 10
0.0
 20
0.0
 30
0.0
  9
$USERI1
 70
     0
  9
$USERI2
 70
     0
  9
$USERI3
 70
     0
  9
$USERI4
 70
     0
  9
$USERI5
 70
     0
  9
$USERR1
 40
0.0
  9
$USERR2
 40
0.0
  9
$USERR3
 40
0.0
  9
$USERR4
 40
0.0
  9
$USERR5
 40
0.0
  9
$WORLDVIEW
 70
     1
  9
$SHADEDGE
 70
     3
  9
$SHADEDIF
 70
    70
  9
$TILEMODE
 70
     1
  9
$MAXACTVP
 70
    64
  9
$PINSBASE
 10
0.0
 20
0.0
 30
0.0
  9
$PLIMCHECK
 70
     0
  9
$PEXTMIN
 10
1.000000000000000E+20
 20
1.000000000000000E+20
 30
1.000000000000000E+20
  9
$PEXTMAX
 10
-1.000000000000000E+20
 20
-1.000000000000000E+20
 30
-1.000000000000000E+20
  9
$PLIMMIN
 10
0.0
 20
0.0
  9
$PLIMMAX
 10
12.0
 20
9.0
  9
$UNITMODE
 70
     0
  9
$VISRETAIN
 70
     1
  9
$PLINEGEN
 70
     0
  9
$PSLTSCALE
 70
     1
  9
$TREEDEPTH
 70
  3020
  9
$CMLSTYLE
  2
Standard
  9
$CMLJUST
 70
     0
  9
$CMLSCALE
 40
1.0
  9
$PROXYGRAPHICS
 70
     1
  9
$MEASUREMENT
 70
     0
  9
$CELWEIGHT
370
    -1
  9
$ENDCAPS
280
     0
  9
$JOINSTYLE
280
     0
  9
$LWDISPLAY
290
     1
  9
$INSUNITS
 70
     1
  9
$HYPERLINKBASE
  1

  9
$STYLESHEET
  1

  9
$XEDIT
290
     1
  9
$CEPSNTYPE
380
     0
  9
$PSTYLEMODE
290
     1
  9
$FINGERPRINTGUID
  2
{EA82CF50-0762-866F-49AE-DEB829B3B695}
  9
$VERSIONGUID
  2
{FAEB1C32-E019-11D5-929B-00C0DF256EC4}
  9
$EXTNAMES
290
     1
  9
$PSVPSCALE
 40
0.0
  9
$OLESTARTUP
290
     0
  9
$SORTENTS
280
   127
  9
$INDEXCTL
280
     0
  9
$HIDETEXT
280
     1
  9
$XCLIPFRAME
280
     2
  9
$HALOGAP
280
     0
  9
$OBSCOLOR
 70
   257
  9
$OBSLTYPE
280
     0
  9
$INTERSECTIONDISPLAY
280
     0
  9
$INTERSECTIONCOLOR
 70
   257
  9
$DIMASSOC
280
     2
  9
$PROJECTNAME
  1

  9
$CAMERADISPLAY
290
     0
  9
$LENSLENGTH
 40
50.0
  9
$CAMERAHEIGHT
 40
0.0
  9
$STEPSPERSEC
 40
2.0
  9
$STEPSIZE
 40
6.0
  9
$3DDWFPREC
 40
2.0
  9
$PSOLWIDTH
 40
0.25
  9
$PSOLHEIGHT
 40
4.0
  9
$LOFTANG1
 40
1.570796326794897
  9
$LOFTANG2
 40
1.570796326794897
  9
$LOFTMAG1
 40
0.0
  9
$LOFTMAG2
 40
0.0
  9
$LOFTPARAM
 70
     7
  9
$LOFTNORMALS
280
     1
  9
$LATITUDE
 40
37.795
  9
$LONGITUDE
 40
-122.394
  9
$NORTHDIRECTION
 40
0.0
  9
$TIMEZONE
 70
 -8000
  9
$LIGHTGLYPHDISPLAY
280
     1
  9
$TILEMODELIGHTSYNCH
280
     1
  9
$CMATERIAL
347
3C
  9
$SOLIDHIST
280
     1
  9
$SHOWHIST
280
     1
  9
$DWFFRAME
280
     2
  9
$DGNFRAME
280
     2
  9
$REALWORLDSCALE
290
     1
  9
$INTERFERECOLOR
 62
   256
  9
$CSHADOW
280
     0
  9
$SHADOWPLANELOCATION
 40
0.0
  0
ENDSEC
  0
SECTION
  2
CLASSES
  0
CLASS
  1
ACDBDICTIONARYWDFLT
  2
AcDbDictionaryWithDefault
  3
ObjectDBX Classes
 90
        0
 91
        4
280
     0
281
     0
  0
CLASS
  1
VISUALSTYLE
  2
AcDbVisualStyle
  3
ObjectDBX Classes
 90
     4095
 91
        4
280
     0
281
     0
  0
CLASS
  1
MATERIAL
  2
AcDbMaterial
  3
ObjectDBX Classes
 90
     1153
 91
        4
280
     0
281
     0
  0
CLASS
  1
SUN
  2
AcDbSun
  3
SCENEOE
 90
     1024
 91
        4
280
     0
281
     0
  0
ENDSEC
  0
SECTION
  2
TABLES
  0
TABLE
  2
VPORT
  5
8
330
0
100
AcDbSymbolTable
 70
     1
  0
VPORT
  5
29
330
8
100
AcDbSymbolTableRecord
100
AcDbViewportTableRecord
  2
*Active
 70
     0
 10
0.0
 20
0.0
 11
1.0
 21
1.0
 12
0.0
 22
0.0
 13
0.0
 23
0.0
 14
0.5
 24
0.5
 15
0.5
 25
0.5
 16
0.0
 26
0.0
 36
1.0
 17
2.0
 27
-2.0
 37
0.0
 40
4.0
 41
1.0
 42
50.0
 43
0.0
 44
0.0
 50
0.0
 51
0.0
 71
     0
 72
   100
 73
     1
 74
     3
 75
     0
 76
     0
 77
     0
 78
     0
281
     0
 65
     1
110
0.0
120
0.0
130
0.0
111
1.0
121
0.0
131
0.0
112
0.0
122
1.0
132
0.0
 79
     0
146
0.0
 60
     3
 61
     5
292
     1
282
     1
141
0.0
142
0.0
 63
   250
361
3F
  0
ENDTAB
  0
TABLE
  2
LTYPE
  5
5
330
0
100
AcDbSymbolTable
 70
     1
  0
LTYPE
  5
14
330
5
100
AcDbSymbolTableRecord
100
AcDbLinetypeTableRecord
  2
ByBlock
 70
     0
  3

 72
    65
 73
     0
 40
0.0
  0
LTYPE
  5
15
330
5
100
AcDbSymbolTableRecord
100
AcDbLinetypeTableRecord
  2
ByLayer
 70
     0
  3

 72
    65
 73
     0
 40
0.0
  0
LTYPE
  5
16
330
5
100
AcDbSymbolTableRecord
100
AcDbLinetypeTableRecord
  2
Continuous
 70
     0
  3
Solid line
 72
    65
 73
     0
 40
0.0
  0
ENDTAB
  0
TABLE
  2
LAYER
  5
2
330
0
100
AcDbSymbolTable
 70
     2
  0
LAYER
  5
10
330
2
100
AcDbSymbolTableRecord
100
AcDbLayerTableRecord
  2
0
 70
     0
 62
     7
  6
Continuous
370
    -3
390
F
347
3E
  0
LAYER
  5
40
330
2
100
AcDbSymbolTableRecord
100
AcDbLayerTableRecord
  2
Layer 1
 70
     0
 62
     7
  6
Continuous
370
    -3
390
F
347
3E
  0
ENDTAB
  0
TABLE
  2
STYLE
  5
3
330
0
100
AcDbSymbolTable
 70
     1
  0
STYLE
  5
11
330
3
100
AcDbSymbolTableRecord
100
AcDbTextStyleTableRecord
  2
Standard
 70
     0
 40
0.0
 41
1.0
 50
0.0
 71
     0
 42
0.2
  3
txt
  4

  0
ENDTAB
  0
TABLE
  2
VIEW
  5
6
330
0
100
AcDbSymbolTable
 70
     0
  0
ENDTAB
  0
TABLE
  2
UCS
  5
7
330
0
100
AcDbSymbolTable
 70
     0
  0
ENDTAB
  0
TABLE
  2
APPID
  5
9
330
0
100
AcDbSymbolTable
 70
     1
  0
APPID
  5
12
330
9
100
AcDbSymbolTableRecord
100
AcDbRegAppTableRecord
  2
ACAD
 70
     0
  0
ENDTAB
  0
TABLE
  2
DIMSTYLE
  5
A
330
0
100
AcDbSymbolTable
 70
     1
100
AcDbDimStyleTable
  0
DIMSTYLE
105
27
330
A
100
AcDbSymbolTableRecord
100
AcDbDimStyleTableRecord
  2
Standard
 70
     0
178
     0
340
11
  0
ENDTAB
  0
TABLE
  2
BLOCK_RECORD
  5
1
330
0
100
AcDbSymbolTable
 70
     1
  0
BLOCK_RECORD
  5
1F
330
1
100
AcDbSymbolTableRecord
100
AcDbBlockTableRecord
  2
*Model_Space
340
22
 70
     0
280
     1
281
     0
  0
BLOCK_RECORD
  5
1B
330
1
100
AcDbSymbolTableRecord
100
AcDbBlockTableRecord
  2
*Paper_Space
340
1E
 70
     0
280
     1
281
     0
  0
BLOCK_RECORD
  5
23
330
1
100
AcDbSymbolTableRecord
100
AcDbBlockTableRecord
  2
*Paper_Space0
340
26
 70
     0
280
     1
281
     0
  0
ENDTAB
  0
ENDSEC
  0
SECTION
  2
BLOCKS
  0
BLOCK
  5
20
330
1F
100
AcDbEntity
  8
0
100
AcDbBlockBegin
  2
*Model_Space
 70
     0
 10
0.0
 20
0.0
 30
0.0
  3
*Model_Space
  1

  0
ENDBLK
  5
21
330
1F
100
AcDbEntity
  8
0
100
AcDbBlockEnd
  0
BLOCK
  5
1C
330
1B
100
AcDbEntity
 67
     1
  8
0
100
AcDbBlockBegin
  2
*Paper_Space
 70
     0
 10
0.0
 20
0.0
 30
0.0
  3
*Paper_Space
  1

  0
ENDBLK
  5
1D
330
1B
100
AcDbEntity
 67
     1
  8
0
100
AcDbBlockEnd
  0
BLOCK
  5
24
330
23
100
AcDbEntity
  8
0
100
AcDbBlockBegin
  2
*Paper_Space0
 70
     0
 10
0.0
 20
0.0
 30
0.0
  3
*Paper_Space0
  1

  0
ENDBLK
  5
25
330
23
100
AcDbEntity
  8
0
100
AcDbBlockEnd
  0
ENDSEC
  0
SECTION
  2
ENTITIES
  0
SPLINE
  5
41
330
1F
100
AcDbEntity
  8
Layer 1
 62
     7
420
 16777215
370
    35
100
AcDbSpline
210
0.0
220
0.0
230
1.0
 70
    11
 71
     3
 72
   377
 73
   373
 74
     0
 42
0.0000000001
 43
0.0000000001
 12
1.0
 22
0.0
 32
0.0
 13
1.0
 23
0.0
 33
0.0
 40
0.0
 40
0.0
 40
0.0
 40
0.0
 40
1.0
 40
1.0
 40
1.0
 40
2.0
 40
2.0
 40
2.0
 40
3.0
 40
3.0
 40
3.0
 40
4.0
 40
4.0
 40
4.0
 40
5.0
 40
5.0
 40
5.0
 40
6.0
 40
6.0
 40
6.0
 40
7.0
 40
7.0
 40
7.0
 40
8.0
 40
8.0
 40
8.0
 40
9.0
 40
9.0
 40
9.0
 40
10.0
 40
10.0
 40
10.0
 40
11.0
 40
11.0
 40
11.0
 40
12.0
 40
12.0
 40
12.0
 40
13.0
 40
13.0
 40
13.0
 40
14.0
 40
14.0
 40
14.0
 40
15.0
 40
15.0
 40
15.0
 40
16.0
 40
16.0
 40
16.0
 40
17.0
 40
17.0
 40
17.0
 40
18.0
 40
18.0
 40
18.0
 40
19.0
 40
19.0
 40
19.0
 40
20.0
 40
20.0
 40
20.0
 40
21.0
 40
21.0
 40
21.0
 40
22.0
 40
22.0
 40
22.0
 40
23.0
 40
23.0
 40
23.0
 40
24.0
 40
24.0
 40
24.0
 40
25.0
 40
25.0
 40
25.0
 40
26.0
 40
26.0
 40
26.0
 40
27.0
 40
27.0
 40
27.0
 40
28.0
 40
28.0
 40
28.0
 40
29.0
 40
29.0
 40
29.0
 40
30.0
 40
30.0
 40
30.0
 40
31.0
 40
31.0
 40
31.0
 40
32.0
 40
32.0
 40
32.0
 40
33.0
 40
33.0
 40
33.0
 40
34.0
 40
34.0
 40
34.0
 40
35.0
 40
35.0
 40
35.0
 40
36.0
 40
36.0
 40
36.0
 40
37.0
 40
37.0
 40
37.0
 40
38.0
 40
38.0
 40
38.0
 40
39.0
 40
39.0
 40
39.0
 40
40.0
 40
40.0
 40
40.0
 40
41.0
 40
41.0
 40
41.0
 40
42.0
 40
42.0
 40
42.0
 40
43.0
 40
43.0
 40
43.0
 40
44.0
 40
44.0
 40
44.0
 40
45.0
 40
45.0
 40
45.0
 40
46.0
 40
46.0
 40
46.0
 40
47.0
 40
47.0
 40
47.0
 40
48.0
 40
48.0
 40
48.0
 40
49.0
 40
49.0
 40
49.0
 40
50.0
 40
50.0
 40
50.0
 40
51.0
 40
51.0
 40
51.0
 40
52.0
 40
52.0
 40
52.0
 40
53.0
 40
53.0
 40
53.0
 40
54.0
 40
54.0
 40
54.0
 40
55.0
 40
55.0
 40
55.0
 40
56.0
 40
56.0
 40
56.0
 40
57.0
 40
57.0
 40
57.0
 40
58.0
 40
58.0
 40
58.0
 40
59.0
 40
59.0
 40
59.0
 40
60.0
 40
60.0
 40
60.0
 40
61.0
 40
61.0
 40
61.0
 40
62.0
 40
62.0
 40
62.0
 40
63.0
 40
63.0
 40
63.0
 40
64.0
 40
64.0
 40
64.0
 40
65.0
 40
65.0
 40
65.0
 40
66.0
 40
66.0
 40
66.0
 40
67.0
 40
67.0
 40
67.0
 40
68.0
 40
68.0
 40
68.0
 40
69.0
 40
69.0
 40
69.0
 40
70.0
 40
70.0
 40
70.0
 40
71.0
 40
71.0
 40
71.0
 40
72.0
 40
72.0
 40
72.0
 40
73.0
 40
73.0
 40
73.0
 40
74.0
 40
74.0
 40
74.0
 40
75.0
 40
75.0
 40
75.0
 40
76.0
 40
76.0
 40
76.0
 40
77.0
 40
77.0
 40
77.0
 40
78.0
 40
78.0
 40
78.0
 40
79.0
 40
79.0
 40
79.0
 40
80.0
 40
80.0
 40
80.0
 40
81.0
 40
81.0
 40
81.0
 40
82.0
 40
82.0
 40
82.0
 40
83.0
 40
83.0
 40
83.0
 40
84.0
 40
84.0
 40
84.0
 40
85.0
 40
85.0
 40
85.0
 40
86.0
 40
86.0
 40
86.0
 40
87.0
 40
87.0
 40
87.0
 40
88.0
 40
88.0
 40
88.0
 40
89.0
 40
89.0
 40
89.0
 40
90.0
 40
90.0
 40
90.0
 40
91.0
 40
91.0
 40
91.0
 40
92.0
 40
92.0
 40
92.0
 40
93.0
 40
93.0
 40
93.0
 40
94.0
 40
94.0
 40
94.0
 40
95.0
 40
95.0
 40
95.0
 40
96.0
 40
96.0
 40
96.0
 40
97.0
 40
97.0
 40
97.0
 40
98.0
 40
98.0
 40
98.0
 40
99.0
 40
99.0
 40
99.0
 40
100.0
 40
100.0
 40
100.0
 40
101.0
 40
101.0
 40
101.0
 40
102.0
 40
102.0
 40
102.0
 40
103.0
 40
103.0
 40
103.0
 40
104.0
 40
104.0
 40
104.0
 40
105.0
 40
105.0
 40
105.0
 40
106.0
 40
106.0
 40
106.0
 40
107.0
 40
107.0
 40
107.0
 40
108.0
 40
108.0
 40
108.0
 40
109.0
 40
109.0
 40
109.0
 40
110.0
 40
110.0
 40
110.0
 40
111.0
 40
111.0
 40
111.0
 40
112.0
 40
112.0
 40
112.0
 40
113.0
 40
113.0
 40
113.0
 40
114.0
 40
114.0
 40
114.0
 40
115.0
 40
115.0
 40
115.0
 40
116.0
 40
116.0
 40
116.0
 40
117.0
 40
117.0
 40
117.0
 40
118.0
 40
118.0
 40
118.0
 40
119.0
 40
119.0
 40
119.0
 40
120.0
 40
120.0
 40
120.0
 40
121.0
 40
121.0
 40
121.0
 40
122.0
 40
122.0
 40
122.0
 40
123.0
 40
123.0
 40
123.0
 40
124.0
 40
124.0
 40
124.0
 40
124.0
 10
1.351408926518717
 20
-1.505967938439072
 30
0.0
 10
1.3232346674788
 20
-1.485467059381828
 30
0.0
 10
1.296044009254804
 20
-1.463428652743965
 30
0.0
 10
1.266724718730744
 20
-1.444718061870491
 30
0.0
 10
1.091794624148684
 20
-1.333085225067167
 30
0.0
 10
0.941538678208417
 20
-1.197033549417281
 30
0.0
 10
0.8481622992270432
 20
-1.008684460750336
 30
0.0
 10
0.8313750455381144
 20
-0.9748229766295
 30
0.0
 10
0.8326204165919837
 20
-0.9290136538917926
 30
0.0
 10
0.8354394806930132
 20
-0.8894238100303811
 30
0.0
 10
0.8377829557111909
 20
-0.8565132886782167
 30
0.0
 10
0.8565505507373624
 20
-0.8330938171932681
 30
0.0
 10
0.8979566639174107
 20
-0.8243342902587124
 30
0.0
 10
0.9539720819291359
 20
-0.8124841982405667
 30
0.0
 10
0.9800286299827247
 20
-0.8070189106451203
 30
0.0
 10
0.9587472557027088
 20
-0.7313394374393611
 30
0.0
 10
0.9499066229010774
 20
-0.6999010804234128
 30
0.0
 10
0.9510494359933671
 20
-0.6392139498574477
 30
0.0
 10
0.9656222226823274
 20
-0.6328451240636543
 30
0.0
 10
1.002492407117175
 20
-0.6167314225574501
 30
0.0
 10
1.051973978557183
 20
-0.6138542041260153
 30
0.0
 10
1.09205793019636
 20
-0.6235670373614665
 30
0.0
 10
1.208214463118704
 20
-0.6517132003028412
 30
0.0
 10
1.298955221940244
 20
-0.7276722782082238
 30
0.0
 10
1.392487741578571
 20
-0.7977271036269131
 30
0.0
 10
1.424996055705568
 20
-0.8220752104097957
 30
0.0
 10
1.463372869495629
 20
-0.8386070832849555
 30
0.0
 10
1.49906918335239
 20
-0.8587087948891899
 30
0.0
 10
1.504495711101349
 20
-0.8161199115301466
 30
0.0
 10
1.513431393461373
 20
-0.7736288599892557
 30
0.0
 10
1.514624546984035
 20
-0.7309219478252973
 30
0.0
 10
1.517179793100809
 20
-0.6394661991445597
 30
0.0
 10
1.515688009906436
 20
-0.5478986852814007
 30
0.0
 10
1.516041587437737
 20
-0.4563776585757119
 30
0.0
 10
1.516062747483071
 20
-0.4509060647480206
 30
0.0
 10
1.517044983134724
 20
-0.4452140510618392
 30
0.0
 10
1.51874939065538
 20
-0.4400061685243801
 30
0.0
 10
1.548607579752747
 20
-0.3487491513766372
 30
0.0
 10
1.591175106387494
 20
-0.3384279797843798
 30
0.0
 10
1.658875988776395
 20
-0.405931252532039
 30
0.0
 10
1.685251985255958
 20
-0.4322306694677107
 30
0.0
 10
1.711995552200013
 20
-0.4581809001013223
 30
0.0
 10
1.737780432575101
 20
-0.4850481762007979
 30
0.0
 10
1.765864249485869
 20
-0.5143110109442229
 30
0.0
 10
1.785164258555356
 20
-0.5073462888192479
 30
0.0
 10
1.799102243884994
 20
-0.4720888690741023
 30
0.0
 10
1.80110937657
 20
-0.4670110312704941
 30
0.0
 10
1.802830507352307
 20
-0.4613897070382285
 30
0.0
 10
1.806270379879467
 20
-0.4573763867921343
 30
0.0
 10
1.831379162677775
 20
-0.4280811686942974
 30
0.0
 10
1.853597892835928
 20
-0.3809477076378142
 30
0.0
 10
1.883277928003382
 20
-0.3755821266862034
 30
0.0
 10
1.909008201809949
 20
-0.3709305986997909
 30
0.0
 10
1.95345658343999
 20
-0.4074665217997588
 30
0.0
 10
1.971745005827226
 20
-0.4368891854411459
 30
0.0
 10
2.008863138212392
 20
-0.4966055823484288
 30
0.0
 10
2.032867161870879
 20
-0.5643312776094136
 30
0.0
 10
2.06459494335872
 20
-0.6275956544815623
 30
0.0
 10
2.072808453849752
 20
-0.6439728116199477
 30
0.0
 10
2.089605775624679
 20
-0.6560556803028703
 30
0.0
 10
2.10246016185978
 20
-0.6701111213673255
 30
0.0
 10
2.115570516384903
 20
-0.6543427712922241
 30
0.0
 10
2.133652457684876
 20
-0.6405629296178227
 30
0.0
 10
2.140913083554804
 20
-0.6224546265271252
 30
0.0
 10
2.169262766196147
 20
-0.5517485548070024
 30
0.0
 10
2.193798862606855
 20
-0.4795272829769727
 30
0.0
 10
2.220555057319921
 20
-0.4081694536392635
 30
0.0
 10
2.233224122513017
 20
-0.3743808746755929
 30
0.0
 10
2.253235723428841
 20
-0.3532852923580725
 30
0.0
 10
2.293256536223149
 20
-0.3439451659663367
 30
0.0
 10
2.326178836397932
 20
-0.3362617038117403
 30
0.0
 10
2.356757832200022
 20
-0.31080489323641
 30
0.0
 10
2.38382630822697
 20
-0.2878694889856585
 30
0.0
 10
2.415785143757931
 20
-0.2607904427920857
 30
0.0
 10
2.444325949389218
 20
-0.2316240124426309
 30
0.0
 10
2.490595460080158
 20
-0.2532997468157166
 30
0.0
 10
2.533353768413715
 20
-0.2733306837466595
 30
0.0
 10
2.533093363339983
 20
-0.3125383827209463
 30
0.0
 10
2.533098482705807
 20
-0.3513488955922083
 30
0.0
 10
2.533111451765838
 20
-0.4500129233109393
 30
0.0
 10
2.532249009273907
 20
-0.5486910122230155
 30
0.0
 10
2.533871165650706
 20
-0.6473284515033507
 30
0.0
 10
2.534173890815029
 20
-0.6657404763708806
 30
0.0
 10
2.544410915961635
 20
-0.6839894340049947
 30
0.0
 10
2.550063378387979
 20
-0.7023136403284475
 30
0.0
 10
2.570431969745667
 20
-0.6926222397604785
 30
0.0
 10
2.595543141581351
 20
-0.6875270598183836
 30
0.0
 10
2.610269509244315
 20
-0.672367815074305
 30
0.0
 10
2.652476632526714
 20
-0.6289193667035609
 30
0.0
 10
2.689861313224532
 20
-0.5808439335202517
 30
0.0
 10
2.730312835328277
 20
-0.5356330636943514
 30
0.0
 10
2.765872974054699
 20
-0.4958896971671341
 30
0.0
 10
2.803785290721155
 20
-0.4603700148607888
 30
0.0
 10
2.863780844997538
 20
-0.4902629188962414
 30
0.0
 10
2.912455433741772
 20
-0.5145149408577683
 30
0.0
 10
2.931166374453116
 20
-0.5584655868802504
 30
0.0
 10
2.928014210283966
 20
-0.6282285360122665
 30
0.0
 10
2.923051838367554
 20
-0.7380456040450049
 30
0.0
 10
2.890342503810138
 20
-0.8390256807506249
 30
0.0
 10
2.843018403764214
 20
-0.93741670826959
 30
0.0
 10
2.829114547539979
 20
-0.9663233687239199
 30
0.0
 10
2.831870131505083
 20
-1.003223348903172
 30
0.0
 10
2.826990693314656
 20
-1.03645991950283
 30
0.0
 10
2.856681991086892
 20
-1.029723755684687
 30
0.0
 10
2.890827478397012
 20
-1.030179849666031
 30
0.0
 10
2.915319548261853
 20
-1.015048556869968
 30
0.0
 10
3.04466783362558
 20
-0.9351370053370702
 30
0.0
 10
3.185047328417163
 20
-0.8860504019116888
 30
0.0
 10
3.334184351638896
 20
-0.8644922063322913
 30
0.0
 10
3.381697868219412
 20
-0.8576240377351748
 30
0.0
 10
3.434460099910161
 20
-0.8636383936269314
 30
0.0
 10
3.48068251243573
 20
-0.8775119339807891
 30
0.0
 10
3.530817144306335
 20
-0.892559967468186
 30
0.0
 10
3.523843544212316
 20
-0.9424020404646727
 30
0.0
 10
3.511757745429476
 20
-0.9805427292153581
 30
0.0
 10
3.500027571924293
 20
-1.017560908638251
 30
0.0
 10
3.512692200333655
 20
-1.034469110179619
 30
0.0
 10
3.54228896048413
 20
-1.051199799807061
 30
0.0
 10
3.62022413769124
 20
-1.095255478683043
 30
0.0
 10
3.633948816112479
 20
-1.158257550384317
 30
0.0
 10
3.586076943925819
 20
-1.232611521761593
 30
0.0
 10
3.503021035753616
 20
-1.361611721984395
 30
0.0
 10
3.38152278590903
 20
-1.444851515378534
 30
0.0
 10
3.251431851213131
 20
-1.519003090790635
 30
0.0
 10
3.210582725032181
 20
-1.54228706350308
 30
0.0
 10
3.172873476542539
 20
-1.571065980146134
 30
0.0
 10
3.122609495362642
 20
-1.604788982817101
 30
0.0
 10
3.180966852582742
 20
-1.639810387562003
 30
0.0
 10
3.227974234531125
 20
-1.619122196365134
 30
0.0
 10
3.272060165062435
 20
-1.613315860915918
 30
0.0
 10
3.373454665406775
 20
-1.599961647303884
 30
0.0
 10
3.472956706860006
 20
-1.573382753497526
 30
0.0
 10
3.577336480048365
 20
-1.596112459533098
 30
0.0
 10
3.620596144939403
 20
-1.605532777336773
 30
0.0
 10
3.655883592114201
 20
-1.624470733446022
 30
0.0
 10
3.658668527109891
 20
-1.664264251562902
 30
0.0
 10
3.660429930236508
 20
-1.689432424187064
 30
0.0
 10
3.636059701277695
 20
-1.724693977070842
 30
0.0
 10
3.613184327132835
 20
-1.74173665475247
 30
0.0
 10
3.548946525062749
 20
-1.789594139438476
 30
0.0
 10
3.480736777713193
 20
-1.832631787914389
 30
0.0
 10
3.411405547962254
 20
-1.872960483572948
 30
0.0
 10
3.37645290731085
 20
-1.893291605677506
 30
0.0
 10
3.365619305402889
 20
-1.915298140277097
 30
0.0
 10
3.376262125612003
 20
-1.953609182515935
 30
0.0
 10
3.39447955946015
 20
-2.019183941287944
 30
0.0
 10
3.352349567955848
 20
-2.114374811634383
 30
0.0
 10
3.297251199004601
 20
-2.148903818953259
 30
0.0
 10
3.277704095212458
 20
-2.161153930617906
 30
0.0
 10
3.264913530404379
 20
-2.184160258675825
 30
0.0
 10
3.249038377055639
 20
-2.202256247569923
 30
0.0
 10
3.26814316764262
 20
-2.216495208512672
 30
0.0
 10
3.285266081082555
 20
-2.237777037727862
 30
0.0
 10
3.306685848884677
 20
-2.243789774451948
 30
0.0
 10
3.416363141803837
 20
-2.274577311263152
 30
0.0
 10
3.522231626567165
 20
-2.314186073821146
 30
0.0
 10
3.612740307472374
 20
-2.383933513030772
 30
0.0
 10
3.639587968187698
 20
-2.404622726859897
 30
0.0
 10
3.667902839141662
 20
-2.443242604036742
 30
0.0
 10
3.668231502426048
 20
-2.473937763068483
 30
0.0
 10
3.668768694544092
 20
-2.524112702860823
 30
0.0
 10
3.625890934341795
 20
-2.550094208997229
 30
0.0
 10
3.575759715381714
 20
-2.557813889377156
 30
0.0
 10
3.532558752551848
 20
-2.564466282570594
 30
0.0
 10
3.489263934682286
 20
-2.571037035623097
 30
0.0
 10
3.44654794643932
 20
-2.580155165598297
 30
0.0
 10
3.39999755321143
 20
-2.590091742247068
 30
0.0
 10
3.391660495359095
 20
-2.618699197550364
 30
0.0
 10
3.421008454331614
 20
-2.657932142758151
 30
0.0
 10
3.441765434908095
 20
-2.685680075659446
 30
0.0
 10
3.462513541917183
 20
-2.713549872236626
 30
0.0
 10
3.481288986637613
 20
-2.7426376238177
 30
0.0
 10
3.519640203598682
 20
-2.802051875506145
 30
0.0
 10
3.475620142240713
 20
-2.863310614887546
 30
0.0
 10
3.406998797880811
 20
-2.870199065690839
 30
0.0
 10
3.309181710358164
 20
-2.880018380508873
 30
0.0
 10
3.215944066190003
 20
-2.858969200129448
 30
0.0
 10
3.124230969157376
 20
-2.826119184518398
 30
0.0
 10
3.087411807734902
 20
-2.812930978207532
 30
0.0
 10
3.048156510773399
 20
-2.806528959475448
 30
0.0
 10
3.010010068444343
 20
-2.797038420924309
 30
0.0
 10
3.006536749393945
 20
-2.801843769844279
 30
0.0
 10
3.003063089052451
 20
-2.806649289202975
 30
0.0
 10
2.999589770002027
 20
-2.811454638122945
 30
0.0
 10
3.011041791298769
 20
-2.83220895953827
 30
0.0
 10
3.022750122176502
 20
-2.85282727086509
 30
0.0
 10
3.033899418308844
 20
-2.873742827297772
 30
0.0
 10
3.072097736878024
 20
-2.945404463631651
 30
0.0
 10
3.111514464507864
 20
-3.016469905366572
 30
0.0
 10
3.147623399248106
 20
-3.08917155869373
 30
0.0
 10
3.167844211579702
 20
-3.129883911882896
 30
0.0
 10
3.168461607095322
 20
-3.172773108244554
 30
0.0
 10
3.130793996114158
 20
-3.205228728686405
 30
0.0
 10
3.091810025540048
 20
-3.238818789165533
 30
0.0
 10
3.045697850024756
 20
-3.233340207350819
 30
0.0
 10
3.000239588167738
 20
-3.2197466977934
 30
0.0
 10
2.989781747709559
 20
-3.216619488387753
 30
0.0
 10
2.980250853752447
 20
-3.210456424723639
 30
0.0
 10
2.970205292886804
 20
-3.205884235955535
 30
0.0
 10
2.906409121439815
 20
-3.176848297741546
 30
0.0
 10
2.873681698456569
 20
-3.196596008150234
 30
0.0
 10
2.868771885362396
 20
-3.267396588133705
 30
0.0
 10
2.867872242145646
 20
-3.280368337285987
 30
0.0
 10
2.869716920289243
 20
-3.293575973609601
 30
0.0
 10
2.868320357298747
 20
-3.306460799021074
 30
0.0
 10
2.856156402864674
 20
-3.418682416339632
 30
0.0
 10
2.778162523596468
 20
-3.442080242108659
 30
0.0
 10
2.6959905592525
 20
-3.391129294881062
 30
0.0
 10
2.616389881704865
 20
-3.341773994833248
 30
0.0
 10
2.564340607024683
 20
-3.269714213678627
 30
0.0
 10
2.497796701306773
 20
-3.210300643744909
 30
0.0
 10
2.483031767754786
 20
-3.197117550595294
 30
0.0
 10
2.460282671299638
 20
-3.192856242029746
 30
0.0
 10
2.441209620780632
 20
-3.184486678857941
 30
0.0
 10
2.434563660097865
 20
-3.203868968677777
 30
0.0
 10
2.422389125641151
 20
-3.223188196175745
 30
0.0
 10
2.422167627747513
 20
-3.24264343376232
 30
0.0
 10
2.420721236263186
 20
-3.369657085629569
 30
0.0
 10
2.429438833640082
 20
-3.497640874619997
 30
0.0
 10
2.38699451307563
 20
-3.620441622514591
 30
0.0
 10
2.375263656988333
 20
-3.654381764098995
 30
0.0
 10
2.359796005157376
 20
-3.688974345055739
 30
0.0
 10
2.338049621817112
 20
-3.717103208468289
 30
0.0
 10
2.296795383155843
 20
-3.770465181652626
 30
0.0
 10
2.24718770467166
 20
-3.765431103987137
 30
0.0
 10
2.209234774369836
 20
-3.707873611578381
 30
0.0
 10
2.140679299183224
 20
-3.603904977355695
 30
0.0
 10
2.110586301841143
 20
-3.485867650458986
 30
0.0
 10
2.086238256800824
 20
-3.365972541650333
 30
0.0
 10
2.064502112192208
 20
-3.258940442098492
 30
0.0
 10
2.042484061173455
 20
-3.151945157307586
 30
0.0
 10
2.022753001503487
 20
-3.044537410844441
 30
0.0
 10
2.014824469042095
 20
-3.001379262202262
 30
0.0
 10
2.014737781114491
 20
-2.95678976929427
 30
0.0
 10
2.006921533409657
 20
-2.913602646071846
 30
0.0
 10
2.003503844800927
 20
-2.894718378155504
 30
0.0
 10
1.989647428033082
 20
-2.877718821466942
 30
0.0
 10
1.980531543996866
 20
-2.859863321589121
 30
0.0
 10
1.967384330037993
 20
-2.873543414009999
 30
0.0
 10
1.949865860267184
 20
-2.885055185193576
 30
0.0
 10
1.941806954623366
 20
-2.901259474872909
 30
0.0
 10
1.893326901779611
 20
-2.998738484867848
 30
0.0
 10
1.848757020534549
 20
-3.098186402812189
 30
0.0
 10
1.799029890181676
 20
-3.195003087989688
 30
0.0
 10
1.78177592097725
 20
-3.228595875488129
 30
0.0
 10
1.756143938994114
 20
-3.259062135335701
 30
0.0
 10
1.729715724983357
 20
-3.286516743221303
 30
0.0
 10
1.689287069380233
 20
-3.328515226897454
 30
0.0
 10
1.645143801951968
 20
-3.329526951065342
 30
0.0
 10
1.598305359075046
 20
-3.293457007391756
 30
0.0
 10
1.56548578750734
 20
-3.268182310575361
 30
0.0
 10
1.539385895490012
 20
-3.279672265604505
 30
0.0
 10
1.51224813737925
 20
-3.303467895316923
 30
0.0
 10
1.466711719870988
 20
-3.343396912206344
 30
0.0
 10
1.420443233053245
 20
-3.382546001570088
 30
0.0
 10
1.37338260970052
 20
-3.42066870903707
 30
0.0
 10
1.342646278722782
 20
-3.44556775894206
 30
0.0
 10
1.307190575058699
 20
-3.464811311653925
 30
0.0
 10
1.268224351619362
 20
-3.442867668937424
 30
0.0
 10
1.221016973113718
 20
-3.41628298021505
 30
0.0
 10
1.226932229651147
 20
-3.36466391325391
 30
0.0
 10
1.239441229340198
 20
-3.328042429922789
 30
0.0
 10
1.275215357557082
 20
-3.223308185025871
 30
0.0
 10
1.31865829574383
 20
-3.120940992899047
 30
0.0
 10
1.363910076513548
 20
-3.019796528059992
 30
0.0
 10
1.383814853329644
 20
-2.975306912234701
 30
0.0
 10
1.417040219959846
 20
-2.936931273725703
 30
0.0
 10
1.440770528193487
 20
-2.893884591998257
 30
0.0
 10
1.44862807211579
 20
-2.87963114376531
 30
0.0
 10
1.44570252520609
 20
-2.859447451142816
 30
0.0
 10
1.447706927562674
 20
-2.841975097479488
 30
0.0
 10
1.429773106579925
 20
-2.841940327983189
 30
0.0
 10
1.408336956807198
 20
-2.835463316219754
 30
0.0
 10
1.394502041375694
 20
-2.842967050757301
 30
0.0
 10
1.328783718715954
 20
-2.878612261171762
 30
0.0
 10
1.26744689059971
 20
-2.922908940380113
 30
0.0
 10
1.200163748460189
 20
-2.954932669137154
 30
0.0
 10
1.116740099177946
 20
-2.994639433951912
 30
0.0
 10
1.029849615375257
 20
-3.027737608321104
 30
0.0
 10
0.942502825434278
 20
-3.058079788789579
 30
0.0
 10
0.9219228042689893
 20
-3.065229010815351
 30
0.0
 10
0.8852893051795894
 20
-3.058222957303895
 30
0.0
 10
0.8702940001665713
 20
-3.043371950962334
 30
0.0
 10
0.8282157142568722
 20
-3.001697982585331
 30
0.0
 10
0.784236266534208
 20
-3.005974630634531
 30
0.0
 10
0.7347311460115532
 20
-3.019721194151316
 30
0.0
 10
0.6924136150734183
 20
-3.031471920402939
 30
0.0
 10
0.6465239613249246
 20
-3.058951071462388
 30
0.0
 10
0.6109783274682488
 20
-3.006996240247468
 30
0.0
 10
0.5854151156323597
 20
-2.969631644151554
 30
0.0
 10
0.5942282745041894
 20
-2.897982961159414
 30
0.0
 10
0.6341528432214495
 20
-2.853416647915664
 30
0.0
 10
0.6984121466279021
 20
-2.781685983905289
 30
0.0
 10
0.7661275338865733
 20
-2.713045203223626
 30
0.0
 10
0.8323284420957987
 20
-2.643047900868724
 30
0.0
 10
0.8437997463370013
 20
-2.630918971125084
 30
0.0
 10
0.8577201551774022
 20
-2.620008166824138
 30
0.0
 10
0.8654387936409572
 20
-2.605788806332713
 30
0.0
 10
0.8712482499518677
 20
-2.595086619009812
 30
0.0
 10
0.8747568926263005
 20
-2.575017290759989
 30
0.0
 10
0.8688105786029735
 20
-2.568087423350739
 30
0.0
 10
0.8610528623137649
 20
-2.559046161232623
 30
0.0
 10
0.8420999462455635
 20
-2.553689102216317
 30
0.0
 10
0.8294301984703907
 20
-2.555747660925843
 30
0.0
 10
0.7665142166500674
 20
-2.565969381532315
 30
0.0
 10
0.7040698990655679
 20
-2.579096911663328
 30
0.0
 10
0.6414801914923044
 20
-2.591306799792998
 30
0.0
 10
0.590696082747071
 20
-2.601213549667944
 30
0.0
 10
0.5601203292099576
 20
-2.563646131509965
 30
0.0
 10
0.5495317742783451
 20
-2.530069706127506
 30
0.0
 10
0.5408264633793907
 20
-2.502464771301877
 30
0.0
 10
0.5575671308394778
 20
-2.458465337199363
 30
0.0
 10
0.5771388075875166
 20
-2.432233286162828
 30
0.0
 10
0.6101931873999117
 20
-2.387929789406118
 30
0.0
 10
0.6564707184305941
 20
-2.353713707554334
 30
0.0
 10
0.6929294765006312
 20
-2.31157989554438
 30
0.0
 10
0.7079628354661306
 20
-2.294206566770223
 30
0.0
 10
0.7217602088817455
 20
-2.265350782269959
 30
0.0
 10
0.7177326331606334
 20
-2.245425133850631
 30
0.0
 10
0.7148115230346168
 20
-2.230973465400868
 30
0.0
 10
0.6828755540041634
 20
-2.217766681270834
 30
0.0
 10
0.6617428119779131
 20
-2.212416951119015
 30
0.0
 10
0.5842362963339333
 20
-2.192796217547437
 30
0.0
 10
0.5054443079372832
 20
-2.178244331137623
 30
0.0
 10
0.4279280654982611
 20
-2.158658026184892
 30
0.0
 10
0.3840235311618395
 20
-2.147564511589457
 30
0.0
 10
0.3322001911590178
 20
-2.136287093628653
 30
0.0
 10
0.3317676047488223
 20
-2.077900587346549
 30
0.0
 10
0.3313404789954827
 20
-2.020271510680661
 30
0.0
 10
0.3643080002348016
 20
-1.97521331132705
 30
0.0
 10
0.4166565871688211
 20
-1.95303719021346
 30
0.0
 10
0.4934863226539568
 20
-1.92049021462444
 30
0.0
 10
0.5730030426024592
 20
-1.894226291549621
 30
0.0
 10
0.6516277983829342
 20
-1.865987836048058
 30
0.0
 10
0.6686500309620744
 20
-1.859874029170442
 30
0.0
 10
0.6890462668951108
 20
-1.860489312904595
 30
0.0
 10
0.7038490837540318
 20
-1.85142470068355
 30
0.0
 10
0.731474546780065
 20
-1.834507977206891
 30
0.0
 10
0.7400877090946096
 20
-1.811026466032407
 30
0.0
 10
0.709655809736508
 20
-1.787178000320624
 30
0.0
 10
0.6924293144618837
 20
-1.773677891174935
 30
0.0
 10
0.6738170068649525
 20
-1.761958014329366
 30
0.0
 10
0.6561988801065833
 20
-1.748937008390536
 30
0.0
 10
0.5933293138695414
 20
-1.702471667067584
 30
0.0
 10
0.590881403789063
 20
-1.682942288643176
 30
0.0
 10
0.6129730030298283
 20
-1.608601696704479
 30
0.0
 10
0.619578520722775
 20
-1.586373421346404
 30
0.0
 10
0.6069702053371707
 20
-1.551857026491929
 30
0.0
 10
0.5918446977872741
 20
-1.531265985358358
 30
0.0
 10
0.5667929105948765
 20
-1.497162222614785
 30
0.0
 10
0.5322501604986074
 20
-1.470088204363088
 30
0.0
 10
0.5023721765201622
 20
-1.439405316918232
 30
0.0
 10
0.4922088702410797
 20
-1.42896833222422
 30
0.0
 10
0.4785969885130044
 20
-1.417643020986588
 30
0.0
 10
0.4761018096216326
 20
-1.4048650606447
 30
0.0
 10
0.4706677734694595
 20
-1.377035487602547
 30
0.0
 10
0.4591061977446189
 20
-1.334855316264161
 30
0.0
 10
0.4723856619867395
 20
-1.322511718968447
 30
0.0
 10
0.4931037353830889
 20
-1.303253423308383
 30
0.0
 10
0.5345531925269269
 20
-1.292513569031043
 30
0.0
 10
0.563398429777812
 20
-1.298042941580598
 30
0.0
 10
0.7009383830051344
 20
-1.324408190467061
 30
0.0
 10
0.8397260963236527
 20
-1.349358798081034
 30
0.0
 10
0.9730495692318248
 20
-1.390890279698599
 30
0.0
 10
1.069825889687144
 20
-1.42103679653082
 30
0.0
 10
1.15798256329784
 20
-1.478062179294688
 30
0.0
 10
1.251702110433446
 20
-1.519193982143052
 30
0.0
 10
1.277590401997688
 20
-1.530555596825403
 30
0.0
 10
1.309634901583081
 20
-1.527922830110255
 30
0.0
 10
1.338854876410627
 20
-1.531711000823735
 30
0.0
 10
1.343039446016292
 20
-1.523129923215947
 30
0.0
 10
1.347224356913039
 20
-1.514548845608172
 30
0.0
 10
1.351408926518717
 20
-1.505967938439072
 30
0.0
  0
ENDSEC
  0
SECTION
  2
OBJECTS
  0
DICTIONARY
  5
C
330
0
100
AcDbDictionary
281
     1
  3
ACAD_GROUP
350
D
  3
ACAD_LAYOUT
350
1A
  3
ACAD_MATERIAL
350
3B
  3
ACAD_MLEADERSTYLE
350
43
  3
ACAD_MLINESTYLE
350
17
  3
ACAD_PLOTSETTINGS
350
19
  3
ACAD_PLOTSTYLENAME
350
E
  3
ACAD_TABLESTYLE
350
42
  3
ACAD_VISUALSTYLE
350
2A
  0
SUN
  5
3F
330
29
100
AcDbSun
 90
        1
290
     0
 63
     7
421
 16777215
 40
1.0
291
     1
 91
  2455826
 92
 54000000
292
     0
 70
     2
 71
   256
280
     1
  0
DICTIONARY
  5
D
102
{ACAD_REACTORS
330
C
102
}
330
C
100
AcDbDictionary
281
     1
  0
DICTIONARY
  5
1A
102
{ACAD_REACTORS
330
C
102
}
330
C
100
AcDbDictionary
281
     1
  3
Layout1
350
1E
  3
Layout2
350
26
  3
Model
350
22
  0
DICTIONARY
  5
3B
102
{ACAD_REACTORS
330
C
102
}
330
C
100
AcDbDictionary
281
     1
  3
ByBlock
350
3D
  3
ByLayer
350
3C
  3
Global
350
3E
  0
DICTIONARY
  5
43
102
{ACAD_REACTORS
330
C
102
}
330
C
100
AcDbDictionary
281
     1
  0
DICTIONARY
  5
17
102
{ACAD_REACTORS
330
C
102
}
330
C
100
AcDbDictionary
281
     1
  3
Standard
350
18
  0
DICTIONARY
  5
19
102
{ACAD_REACTORS
330
C
102
}
330
C
100
AcDbDictionary
281
     1
  0
ACDBDICTIONARYWDFLT
  5
E
102
{ACAD_REACTORS
330
C
102
}
330
C
100
AcDbDictionary
281
     1
  3
Normal
350
F
100
AcDbDictionaryWithDefault
340
F
  0
DICTIONARY
  5
42
102
{ACAD_REACTORS
330
C
102
}
330
C
100
AcDbDictionary
281
     1
  0
DICTIONARY
  5
2A
102
{ACAD_REACTORS
330
C
102
}
330
C
100
AcDbDictionary
281
     1
  3
2dWireframe
350
2F
  3
3D Hidden
350
31
  3
3dWireframe
350
30
  3
Basic
350
32
  3
Brighten
350
36
  3
ColorChange
350
3A
  3
Conceptual
350
34
  3
Dim
350
35
  3
Facepattern
350
39
  3
Flat
350
2B
  3
FlatWithEdges
350
2C
  3
Gouraud
350
2D
  3
GouraudWithEdges
350
2E
  3
Linepattern
350
38
  3
Realistic
350
33
  3
Thicken
350
37
  0
LAYOUT
  5
1E
102
{ACAD_REACTORS
330
1A
102
}
330
1A
100
AcDbPlotSettings
  1

  2
none_device
  4

  6

 40
0.0
 41
0.0
 42
0.0
 43
0.0
 44
0.0
 45
0.0
 46
0.0
 47
0.0
 48
0.0
 49
0.0
140
0.0
141
0.0
142
1.0
143
1.0
 70
   688
 72
     0
 73
     0
 74
     5
  7

 75
    16
 76
     0
 77
     2
 78
   300
147
1.0
148
0.0
149
0.0
100
AcDbLayout
  1
Layout1
 70
     1
 71
     1
 10
0.0
 20
0.0
 11
12.0
 21
9.0
 12
0.0
 22
0.0
 32
0.0
 14
1.000000000000000E+20
 24
1.000000000000000E+20
 34
1.000000000000000E+20
 15
-1.000000000000000E+20
 25
-1.000000000000000E+20
 35
-1.000000000000000E+20
146
0.0
 13
0.0
 23
0.0
 33
0.0
 16
1.0
 26
0.0
 36
0.0
 17
0.0
 27
1.0
 37
0.0
 76
     0
330
1B
  0
LAYOUT
  5
26
102
{ACAD_REACTORS
330
1A
102
}
330
1A
100
AcDbPlotSettings
  1

  2
none_device
  4

  6

 40
0.0
 41
0.0
 42
0.0
 43
0.0
 44
0.0
 45
0.0
 46
0.0
 47
0.0
 48
0.0
 49
0.0
140
0.0
141
0.0
142
1.0
143
1.0
 70
   688
 72
     0
 73
     0
 74
     5
  7

 75
    16
 76
     0
 77
     2
 78
   300
147
1.0
148
0.0
149
0.0
100
AcDbLayout
  1
Layout2
 70
     1
 71
     2
 10
0.0
 20
0.0
 11
0.0
 21
0.0
 12
0.0
 22
0.0
 32
0.0
 14
0.0
 24
0.0
 34
0.0
 15
0.0
 25
0.0
 35
0.0
146
0.0
 13
0.0
 23
0.0
 33
0.0
 16
1.0
 26
0.0
 36
0.0
 17
0.0
 27
1.0
 37
0.0
 76
     0
330
23
  0
LAYOUT
  5
22
102
{ACAD_REACTORS
330
1A
102
}
330
1A
100
AcDbPlotSettings
  1

  2
none_device
  4

  6

 40
0.0
 41
0.0
 42
0.0
 43
0.0
 44
0.0
 45
0.0
 46
0.0
 47
0.0
 48
0.0
 49
0.0
140
0.0
141
0.0
142
1.0
143
1.0
 70
  1712
 72
     0
 73
     0
 74
     0
  7

 75
     0
 76
     0
 77
     2
 78
   300
147
1.0
148
0.0
149
0.0
100
AcDbLayout
  1
Model
 70
     1
 71
     0
 10
0.0
 20
0.0
 11
12.0
 21
9.0
 12
0.0
 22
0.0
 32
0.0
 14
1.000000000000000E+20
 24
1.000000000000000E+20
 34
1.000000000000000E+20
 15
-1.000000000000000E+20
 25
-1.000000000000000E+20
 35
-1.000000000000000E+20
146
0.0
 13
0.0
 23
0.0
 33
0.0
 16
1.0
 26
0.0
 36
0.0
 17
0.0
 27
1.0
 37
0.0
 76
     0
330
1F
331
29
  0
MATERIAL
  5
3D
102
{ACAD_REACTORS
330
3B
102
}
330
3B
100
AcDbMaterial
  1
ByBlock
 72
     1
 94
      127
  0
MATERIAL
  5
3C
102
{ACAD_REACTORS
330
3B
102
}
330
3B
100
AcDbMaterial
  1
ByLayer
 72
     1
 94
      127
  0
MATERIAL
  5
3E
102
{ACAD_REACTORS
330
3B
102
}
330
3B
100
AcDbMaterial
  1
Global
 72
     1
 94
      127
  0
MLINESTYLE
  5
18
102
{ACAD_REACTORS
330
17
102
}
330
17
100
AcDbMlineStyle
  2
Standard
 70
     0
  3

 62
   256
 51
90.0
 52
90.0
 71
     2
 49
0.5
 62
   256
  6
BYLAYER
 49
-0.5
 62
   256
  6
BYLAYER
  0
ACDBPLACEHOLDER
  5
F
102
{ACAD_REACTORS
330
E
102
}
330
E
  0
VISUALSTYLE
  5
2F
102
{ACAD_REACTORS
330
2A
102
}
330
2A
100
AcDbVisualStyle
  2
2dWireframe
 70
     4
177
     2
291
     0
 71
     0
176
     1
 72
     2
176
     1
 73
     0
176
     1
 90
        0
176
     1
 40
-0.6
176
     1
 41
-30.0
176
     1
 62
     5
 63
     7
421
 16777215
176
     1
 74
     1
176
     1
 91
        4
176
     1
 64
     7
176
     1
 65
   257
176
     1
 75
     1
176
     1
175
     1
176
     1
 42
1.0
176
     1
 92
        0
176
     1
 66
   257
176
     1
 43
1.0
176
     1
 76
     1
176
     1
 77
     6
176
     1
 78
     2
176
     1
 67
     7
176
     1
 79
     5
176
     1
170
     0
176
     1
171
     0
176
     1
290
     0
176
     1
 93
        1
176
     1
 44
0.0
176
     1
173
     0
176
     1
  0
VISUALSTYLE
  5
31
102
{ACAD_REACTORS
330
2A
102
}
330
2A
100
AcDbVisualStyle
  2
3D Hidden
 70
     6
177
     2
291
     0
 71
     1
176
     1
 72
     2
176
     1
 73
     2
176
     1
 90
        0
176
     1
 40
-0.6
176
     1
 41
-30.0
176
     1
 62
     5
 63
     7
421
 16777215
176
     1
 74
     2
176
     1
 91
        2
176
     1
 64
     7
176
     1
 65
   257
176
     1
 75
     2
176
     1
175
     1
176
     1
 42
40.0
176
     1
 92
        0
176
     1
 66
   257
176
     1
 43
1.0
176
     1
 76
     1
176
     1
 77
     6
176
     1
 78
     2
176
     1
 67
     7
176
     1
 79
     3
176
     1
170
     0
176
     1
171
     0
176
     1
290
     0
176
     1
 93
        1
176
     1
 44
0.0
176
     1
173
     0
176
     1
  0
VISUALSTYLE
  5
30
102
{ACAD_REACTORS
330
2A
102
}
330
2A
100
AcDbVisualStyle
  2
3dWireframe
 70
     5
177
     2
291
     0
 71
     0
176
     1
 72
     2
176
     1
 73
     0
176
     1
 90
        0
176
     1
 40
-0.6
176
     1
 41
-30.0
176
     1
 62
     5
 63
     7
421
 16777215
176
     1
 74
     1
176
     1
 91
        4
176
     1
 64
     7
176
     1
 65
   257
176
     1
 75
     1
176
     1
175
     1
176
     1
 42
1.0
176
     1
 92
        0
176
     1
 66
   257
176
     1
 43
1.0
176
     1
 76
     1
176
     1
 77
     6
176
     1
 78
     2
176
     1
 67
     7
176
     1
 79
     5
176
     1
170
     0
176
     1
171
     0
176
     1
290
     0
176
     1
 93
        1
176
     1
 44
0.0
176
     1
173
     0
176
     1
  0
VISUALSTYLE
  5
32
102
{ACAD_REACTORS
330
2A
102
}
330
2A
100
AcDbVisualStyle
  2
Basic
 70
     7
177
     2
291
     1
 71
     1
176
     1
 72
     0
176
     1
 73
     1
176
     1
 90
        0
176
     1
 40
-0.6
176
     1
 41
-30.0
176
     1
 62
     5
 63
     7
421
 16777215
176
     1
 74
     0
176
     1
 91
        4
176
     1
 64
     7
176
     1
 65
   257
176
     1
 75
     1
176
     1
175
     1
176
     1
 42
1.0
176
     1
 92
        8
176
     1
 66
     7
176
     1
 43
1.0
176
     1
 76
     1
176
     1
 77
     6
176
     1
 78
     2
176
     1
 67
     7
176
     1
 79
     5
176
     1
170
     0
176
     1
171
     0
176
     1
290
     0
176
     1
 93
        1
176
     1
 44
0.0
176
     1
173
     0
176
     1
  0
VISUALSTYLE
  5
36
102
{ACAD_REACTORS
330
2A
102
}
330
2A
100
AcDbVisualStyle
  2
Brighten
 70
    12
177
     2
291
     1
 71
     2
176
     1
 72
     2
176
     1
 73
     0
176
     1
 90
        0
176
     1
 40
-0.6
176
     1
 41
-30.0
176
     1
 62
     5
 63
     7
421
 16777215
176
     1
 74
     1
176
     1
 91
        4
176
     1
 64
     7
176
     1
 65
   257
176
     1
 75
     1
176
     1
175
     1
176
     1
 42
1.0
176
     1
 92
        8
176
     1
 66
     7
176
     1
 43
1.0
176
     1
 76
     1
176
     1
 77
     6
176
     1
 78
     2
176
     1
 67
     7
176
     1
 79
     5
176
     1
170
     0
176
     1
171
     0
176
     1
290
     0
176
     1
 93
        1
176
     1
 44
50.0
176
     1
173
     0
176
     1
  0
VISUALSTYLE
  5
3A
102
{ACAD_REACTORS
330
2A
102
}
330
2A
100
AcDbVisualStyle
  2
ColorChange
 70
    16
177
     2
291
     1
 71
     2
176
     1
 72
     2
176
     1
 73
     3
176
     1
 90
        0
176
     1
 40
-0.6
176
     1
 41
-30.0
176
     1
 62
     5
 63
     8
421
  8421504
176
     1
 74
     1
176
     1
 91
        4
176
     1
 64
     7
176
     1
 65
   257
176
     1
 75
     1
176
     1
175
     1
176
     1
 42
1.0
176
     1
 92
        8
176
     1
 66
     8
424
  8421504
176
     1
 43
1.0
176
     1
 76
     1
176
     1
 77
     6
176
     1
 78
     2
176
     1
 67
     7
176
     1
 79
     5
176
     1
170
     0
176
     1
171
     0
176
     1
290
     0
176
     1
 93
        1
176
     1
 44
0.0
176
     1
173
     0
176
     1
  0
VISUALSTYLE
  5
34
102
{ACAD_REACTORS
330
2A
102
}
330
2A
100
AcDbVisualStyle
  2
Conceptual
 70
     9
177
     2
291
     0
 71
     3
176
     1
 72
     2
176
     1
 73
     0
176
     1
 90
        0
176
     1
 40
-0.6
176
     1
 41
-30.0
176
     1
 62
     5
 63
     7
421
 16777215
176
     1
 74
     2
176
     1
 91
        2
176
     1
 64
     7
176
     1
 65
   257
176
     1
 75
     1
176
     1
175
     1
176
     1
 42
40.0
176
     1
 92
        8
176
     1
 66
     7
176
     1
 43
1.0
176
     1
 76
     1
176
     1
 77
     6
176
     1
 78
     2
176
     1
 67
     7
176
     1
 79
     3
176
     1
170
     0
176
     1
171
     0
176
     1
290
     0
176
     1
 93
        1
176
     1
 44
0.0
176
     1
173
     0
176
     1
  0
VISUALSTYLE
  5
35
102
{ACAD_REACTORS
330
2A
102
}
330
2A
100
AcDbVisualStyle
  2
Dim
 70
    11
177
     2
291
     1
 71
     2
176
     1
 72
     2
176
     1
 73
     0
176
     1
 90
        0
176
     1
 40
-0.6
176
     1
 41
-30.0
176
     1
 62
     5
 63
     7
421
 16777215
176
     1
 74
     1
176
     1
 91
        4
176
     1
 64
     7
176
     1
 65
   257
176
     1
 75
     1
176
     1
175
     1
176
     1
 42
1.0
176
     1
 92
        8
176
     1
 66
     7
176
     1
 43
1.0
176
     1
 76
     1
176
     1
 77
     6
176
     1
 78
     2
176
     1
 67
     7
176
     1
 79
     5
176
     1
170
     0
176
     1
171
     0
176
     1
290
     0
176
     1
 93
        1
176
     1
 44
-50.0
176
     1
173
     0
176
     1
  0
VISUALSTYLE
  5
39
102
{ACAD_REACTORS
330
2A
102
}
330
2A
100
AcDbVisualStyle
  2
Facepattern
 70
    15
177
     2
291
     1
 71
     2
176
     1
 72
     2
176
     1
 73
     0
176
     1
 90
        0
176
     1
 40
-0.6
176
     1
 41
-30.0
176
     1
 62
     5
 63
     7
421
 16777215
176
     1
 74
     1
176
     1
 91
        4
176
     1
 64
     7
176
     1
 65
   257
176
     1
 75
     1
176
     1
175
     1
176
     1
 42
1.0
176
     1
 92
        8
176
     1
 66
     7
176
     1
 43
1.0
176
     1
 76
     1
176
     1
 77
     6
176
     1
 78
     2
176
     1
 67
     7
176
     1
 79
     5
176
     1
170
     0
176
     1
171
     0
176
     1
290
     0
176
     1
 93
        1
176
     1
 44
0.0
176
     1
173
     0
176
     1
  0
VISUALSTYLE
  5
2B
102
{ACAD_REACTORS
330
2A
102
}
330
2A
100
AcDbVisualStyle
  2
Flat
 70
     0
177
     2
291
     1
 71
     2
176
     1
 72
     1
176
     1
 73
     1
176
     1
 90
        2
176
     1
 40
-0.6
176
     1
 41
30.0
176
     1
 62
     5
 63
     7
421
 16777215
176
     1
 74
     0
176
     1
 91
        4
176
     1
 64
     7
176
     1
 65
   257
176
     1
 75
     1
176
     1
175
     1
176
     1
 42
1.0
176
     1
 92
        8
176
     1
 66
     7
176
     1
 43
1.0
176
     1
 76
     1
176
     1
 77
     6
176
     1
 78
     2
176
     1
 67
     7
176
     1
 79
     5
176
     1
170
     0
176
     1
171
     0
176
     1
290
     0
176
     1
 93
       13
176
     1
 44
0.0
176
     1
173
     0
176
     1
  0
VISUALSTYLE
  5
2C
102
{ACAD_REACTORS
330
2A
102
}
330
2A
100
AcDbVisualStyle
  2
FlatWithEdges
 70
     1
177
     2
291
     1
 71
     2
176
     1
 72
     1
176
     1
 73
     1
176
     1
 90
        2
176
     1
 40
-0.6
176
     1
 41
30.0
176
     1
 62
     5
 63
     7
421
 16777215
176
     1
 74
     1
176
     1
 91
        4
176
     1
 64
     7
176
     1
 65
   257
176
     1
 75
     1
176
     1
175
     1
176
     1
 42
1.0
176
     1
 92
        0
176
     1
 66
   257
176
     1
 43
1.0
176
     1
 76
     1
176
     1
 77
     6
176
     1
 78
     2
176
     1
 67
     7
176
     1
 79
     5
176
     1
170
     0
176
     1
171
     0
176
     1
290
     0
176
     1
 93
       13
176
     1
 44
0.0
176
     1
173
     0
176
     1
  0
VISUALSTYLE
  5
2D
102
{ACAD_REACTORS
330
2A
102
}
330
2A
100
AcDbVisualStyle
  2
Gouraud
 70
     2
177
     2
291
     1
 71
     2
176
     1
 72
     2
176
     1
 73
     1
176
     1
 90
        2
176
     1
 40
-0.6
176
     1
 41
30.0
176
     1
 62
     5
 63
     7
421
 16777215
176
     1
 74
     0
176
     1
 91
        4
176
     1
 64
     7
176
     1
 65
   257
176
     1
 75
     1
176
     1
175
     1
176
     1
 42
1.0
176
     1
 92
        0
176
     1
 66
     7
176
     1
 43
1.0
176
     1
 76
     1
176
     1
 77
     6
176
     1
 78
     2
176
     1
 67
     7
176
     1
 79
     5
176
     1
170
     0
176
     1
171
     0
176
     1
290
     0
176
     1
 93
       13
176
     1
 44
0.0
176
     1
173
     0
176
     1
  0
VISUALSTYLE
  5
2E
102
{ACAD_REACTORS
330
2A
102
}
330
2A
100
AcDbVisualStyle
  2
GouraudWithEdges
 70
     3
177
     2
291
     1
 71
     2
176
     1
 72
     2
176
     1
 73
     1
176
     1
 90
        2
176
     1
 40
-0.6
176
     1
 41
30.0
176
     1
 62
     5
 63
     7
421
 16777215
176
     1
 74
     1
176
     1
 91
        4
176
     1
 64
     7
176
     1
 65
   257
176
     1
 75
     1
176
     1
175
     1
176
     1
 42
1.0
176
     1
 92
        0
176
     1
 66
   257
176
     1
 43
1.0
176
     1
 76
     1
176
     1
 77
     6
176
     1
 78
     2
176
     1
 67
     7
176
     1
 79
     5
176
     1
170
     0
176
     1
171
     0
176
     1
290
     0
176
     1
 93
       13
176
     1
 44
0.0
176
     1
173
     0
176
     1
  0
VISUALSTYLE
  5
38
102
{ACAD_REACTORS
330
2A
102
}
330
2A
100
AcDbVisualStyle
  2
Linepattern
 70
    14
177
     2
291
     1
 71
     2
176
     1
 72
     2
176
     1
 73
     0
176
     1
 90
        0
176
     1
 40
-0.6
176
     1
 41
-30.0
176
     1
 62
     5
 63
     7
421
 16777215
176
     1
 74
     1
176
     1
 91
        4
176
     1
 64
     7
176
     1
 65
   257
176
     1
 75
     7
176
     1
175
     7
176
     1
 42
1.0
176
     1
 92
        8
176
     1
 66
     7
176
     1
 43
1.0
176
     1
 76
     1
176
     1
 77
     6
176
     1
 78
     2
176
     1
 67
     7
176
     1
 79
     5
176
     1
170
     0
176
     1
171
     0
176
     1
290
     0
176
     1
 93
        1
176
     1
 44
0.0
176
     1
173
     0
176
     1
  0
VISUALSTYLE
  5
33
102
{ACAD_REACTORS
330
2A
102
}
330
2A
100
AcDbVisualStyle
  2
Realistic
 70
     8
177
     2
291
     0
 71
     2
176
     1
 72
     2
176
     1
 73
     0
176
     1
 90
        0
176
     1
 40
-0.6
176
     1
 41
-30.0
176
     1
 62
     5
 63
     7
421
 16777215
176
     1
 74
     1
176
     1
 91
        0
176
     1
 64
     7
176
     1
 65
   257
176
     1
 75
     1
176
     1
175
     1
176
     1
 42
1.0
176
     1
 92
        8
176
     1
 66
     8
424
  7895160
176
     1
 43
1.0
176
     1
 76
     1
176
     1
 77
     6
176
     1
 78
     2
176
     1
 67
     7
176
     1
 79
     5
176
     1
170
     0
176
     1
171
     0
176
     1
290
     0
176
     1
 93
       13
176
     1
 44
0.0
176
     1
173
     0
176
     1
  0
VISUALSTYLE
  5
37
102
{ACAD_REACTORS
330
2A
102
}
330
2A
100
AcDbVisualStyle
  2
Thicken
 70
    13
177
     2
291
     1
 71
     2
176
     1
 72
     2
176
     1
 73
     0
176
     1
 90
        0
176
     1
 40
-0.6
176
     1
 41
-30.0
176
     1
 62
     5
 63
     7
421
 16777215
176
     1
 74
     1
176
     1
 91
        4
176
     1
 64
     7
176
     1
 65
   257
176
     1
 75
     1
176
     1
175
     1
176
     1
 42
1.0
176
     1
 92
       12
176
     1
 66
     7
176
     1
 43
1.0
176
     1
 76
     1
176
     1
 77
     6
176
     1
 78
     2
176
     1
 67
     7
176
     1
 79
     5
176
     1
170
     0
176
     1
171
     0
176
     1
290
     0
176
     1
 93
        1
176
     1
 44
0.0
176
     1
173
     0
176
     1
  0
ENDSEC
  0
EOF
